<svg id="Capa_1" enable-background="new 0 0 512 512" height="512" viewBox="0 0 512 512" width="512" xmlns="http://www.w3.org/2000/svg"><g><path d="m512 490.789-490.789-490.789-21.211 21.211 69.789 69.789h-38.789v330h195c8.276 0 15 6.724 15 15v-173.789l30 30v143.789c0-8.276 6.724-15 15-15h113.789l91 91zm-301-159.789h-120v-30h120zm0-60h-120v-30h120zm-120-60v-30h68.789l30 30z"/><path d="m421 241v30h-86.36l30 30h56.36v30h-26.36l86.36 86.36v-326.36h-195c-5.288 0-10.281 1.133-15 2.818v113.542l33.64 33.64zm-120-60h120v30h-120z"/><path d="m241 93.818c-4.719-1.685-9.712-2.818-15-2.818h-71.36l86.36 86.36z"/></g></svg>