<svg width="15" height="15" viewBox="0 0 15 15" fill="none" xmlns="http://www.w3.org/2000/svg">
<path d="M11.2503 14.2121H8.20399C7.60964 14.2126 7.02001 14.1067 6.46305 13.8992L4.09 13.0178C3.96003 12.9683 3.85489 12.8694 3.79749 12.7427C3.74009 12.616 3.73506 12.4718 3.78352 12.3414C3.83197 12.211 3.92998 12.105 4.05619 12.0466C4.1824 11.9881 4.3266 11.9819 4.45738 12.0293L6.83008 12.9106C7.2697 13.074 7.735 13.1573 8.20399 13.1567H11.2503C11.3828 13.1567 11.5098 13.1041 11.6035 13.0104C11.6972 12.9167 11.7498 12.7896 11.7498 12.6571C11.7498 12.5246 11.6972 12.3976 11.6035 12.3039C11.5098 12.2102 11.3828 12.1576 11.2503 12.1576C11.1104 12.1576 10.9763 12.102 10.8774 12.0031C10.7785 11.9042 10.7229 11.7701 10.7229 11.6302C10.7229 11.4904 10.7785 11.3562 10.8774 11.2573C10.9763 11.1584 11.1104 11.1029 11.2503 11.1029H11.9692C12.1017 11.1029 12.2288 11.0503 12.3225 10.9566C12.4162 10.8629 12.4688 10.7358 12.4688 10.6033C12.4688 10.4708 12.4162 10.3438 12.3225 10.2501C12.2288 10.1564 12.1017 10.1037 11.9692 10.1037C11.8294 10.1037 11.6952 10.0482 11.5963 9.94929C11.4974 9.85039 11.4419 9.71626 11.4419 9.5764C11.4419 9.43654 11.4974 9.30241 11.5963 9.20351C11.6952 9.10462 11.8294 9.04906 11.9692 9.04906H12.6878C12.7866 9.04908 12.8833 9.0198 12.9654 8.96491C13.0476 8.91002 13.1117 8.83198 13.1495 8.74068C13.1873 8.64938 13.1972 8.54891 13.1779 8.45199C13.1586 8.35506 13.111 8.26603 13.0411 8.19617C12.9949 8.14958 12.9398 8.11265 12.8792 8.08755C12.8185 8.06244 12.7535 8.04965 12.6878 8.04992C12.548 8.04992 12.4138 7.99436 12.3149 7.89546C12.216 7.79656 12.1605 7.66243 12.1605 7.52257C12.1605 7.38271 12.216 7.24858 12.3149 7.14968C12.4138 7.05079 12.548 6.99523 12.6878 6.99523H13.4068C13.5054 6.99491 13.6018 6.96538 13.6837 6.91035C13.7656 6.85533 13.8294 6.77728 13.867 6.68604C13.9046 6.59481 13.9144 6.49449 13.895 6.39773C13.8757 6.30097 13.8281 6.2121 13.7583 6.14234C13.7123 6.09591 13.6575 6.05906 13.5972 6.03389C13.5369 6.00873 13.4721 5.99577 13.4068 5.99574H8.42723C8.33546 5.99585 8.24525 5.97201 8.16552 5.92658C8.08578 5.88115 8.01929 5.8157 7.9726 5.7367C7.9259 5.6577 7.90064 5.56788 7.89929 5.47613C7.89795 5.38437 7.92057 5.29385 7.96492 5.21351C8.12513 4.88848 8.23423 4.54068 8.28836 4.18238C8.40754 3.41351 8.26059 2.71847 7.85172 2.1166C7.79909 2.04163 7.72397 1.98535 7.63724 1.95589C7.55051 1.92643 7.45666 1.92532 7.36926 1.95272C7.28185 1.98012 7.20543 2.03461 7.15104 2.10831C7.09665 2.18201 7.0671 2.27109 7.06668 2.36269C7.08391 4.16902 6.2493 5.48175 4.65321 6.15956C4.58921 6.18819 4.52016 6.20376 4.45007 6.20538C4.37999 6.207 4.31029 6.19463 4.24505 6.16899C4.1798 6.14335 4.12032 6.10496 4.07009 6.05607C4.01985 6.00718 3.97987 5.94876 3.95248 5.88423C3.92509 5.8197 3.91084 5.75036 3.91056 5.68026C3.91028 5.61016 3.92399 5.54071 3.95087 5.47596C3.97775 5.41122 4.01727 5.35249 4.06711 5.3032C4.11696 5.25391 4.17613 5.21505 4.24117 5.1889C4.8993 4.90765 5.37883 4.49457 5.66676 3.95562C5.9016 3.51582 6.01832 2.98355 6.01235 2.37359C6.00707 1.70703 6.41805 1.14453 7.05719 0.945541C7.69633 0.746557 8.35129 0.972963 8.72535 1.52421C9.59406 2.80249 9.43727 4.12929 9.19926 4.94175H13.4068C13.7575 4.9418 14.0978 5.06045 14.3726 5.27842C14.6473 5.49639 14.8403 5.80087 14.9201 6.14237C14.9998 6.48387 14.9618 6.84232 14.8121 7.15947C14.6624 7.47661 14.4098 7.73381 14.0955 7.88925C14.2678 8.25761 14.289 8.67877 14.1547 9.06261C14.0204 9.44645 13.7412 9.76248 13.3769 9.94308C13.5492 10.3115 13.5705 10.7328 13.4361 11.1167C13.3018 11.5007 13.0224 11.8167 12.6579 11.9973C12.7689 12.2341 12.8184 12.4951 12.8017 12.7562C12.7851 13.0172 12.7029 13.2698 12.5627 13.4906C12.4225 13.7114 12.2288 13.8933 11.9997 14.0194C11.7705 14.1455 11.5132 14.2118 11.2517 14.2121H11.2503Z" fill="black"/>
<path d="M4.44929 13.4313H1.43042C1.29056 13.4313 1.15643 13.3757 1.05753 13.2768C0.958635 13.1779 0.903076 13.0438 0.903076 12.9039V5.67474C0.903076 5.53488 0.958635 5.40075 1.05753 5.30186C1.15643 5.20296 1.29056 5.1474 1.43042 5.1474H4.44929C4.58915 5.1474 4.72328 5.20296 4.82218 5.30186C4.92107 5.40075 4.97663 5.53488 4.97663 5.67474V12.9039C4.97663 13.0438 4.92107 13.1779 4.82218 13.2768C4.72328 13.3757 4.58915 13.4313 4.44929 13.4313ZM1.95882 12.3766H3.92194V6.20209H1.95776L1.95882 12.3766Z" fill="black"/>
</svg>
